<?xml version="1.0" encoding="UTF-8"?>
<svg width="140px" height="140px" viewBox="0 0 140 140" version="1.1" xmlns="http://www.w3.org/2000/svg" xmlns:xlink="http://www.w3.org/1999/xlink">
    <title>Icon / Add / Filled</title>
    <defs>
        <path d="M180,130 L130,130 L130,180 C130,185.5 125.5,190 120,190 L120,190 C114.5,190 110,185.5 110,180 L110,130 L60,130 C54.5,130 50,125.5 50,120 L50,120 C50,114.5 54.5,110 60,110 L110,110 L110,60 C110,54.5 114.5,50 120,50 L120,50 C125.5,50 130,54.5 130,60 L130,110 L180,110 C185.5,110 190,114.5 190,120 L190,120 C190,125.5 185.5,130 180,130 Z" id="path-1"></path>
    </defs>
    <g id="Page-1" stroke="none" stroke-width="1" fill="none" fill-rule="evenodd">
        <g id="Icon-/-Add-/-Filled" transform="translate(-50.000000, -50.000000)">
            <mask id="mask-2" fill="white">
                <use xlink:href="#path-1"></use>
            </mask>
            <g id="Mask" fill-rule="nonzero"></g>
            <g id="Group" mask="url(#mask-2)" fill="#B3B3B3" fill-opacity="0.54">
                <g id="↳-Icon-Color">
                    <rect id="Rectangle" x="0" y="0" width="240" height="240"></rect>
                </g>
            </g>
        </g>
    </g>
</svg>
